<?xml version="1.0" encoding="UTF-8"?>
<svg width="22.809mm" height="22.622mm" version="1.1" viewBox="0 0 22.809 22.622" xmlns="http://www.w3.org/2000/svg" xmlns:xlink="http://www.w3.org/1999/xlink"><defs><linearGradient id="a" x1="277.1" x2="204.88" y1="359.39" y2="331.37" gradientUnits="userSpaceOnUse"><stop stop-color="#11111b" offset="0"/><stop stop-color="#211721" offset=".31422"/><stop stop-color="#272532" offset=".84206"/><stop stop-color="#1e0f3b" offset=".88581"/><stop stop-color="#6b5e7a" offset="1"/></linearGradient></defs><g transform="translate(-50.569 -82.795)"><path transform="scale(.26458)" d="m232.6 316.26c-14.646-0.0179-16.176 14.275-16.176 14.275-5.0597-0.15436-7.1186 0.4075-9.7988 3.1367-1.1642 1.1855-0.55531 1.7994 0.91601 2.1758 3.807 3.8971 6.9194 4.7727 13.18 5.3887-1.4344 6.9744-11.714 23.878-2.6582 38.402 8.7611 14.052 22.896 9.2175 37 12.877 7.7813 3.1975 12.339 3.9105 14.646 2.6152 3.0509-1.7126 13.009-18.367-10.152-47.904-3.2905-4.1963-6.905-10.463-10.824-17.998-1.881-3.6163-0.88105-10.543-11.152-12.473-1.8087-0.33983-3.4653-0.49424-4.9805-0.49609z" fill="url(#a)"/><g fill="none" stroke="#fff" stroke-linecap="round" stroke-linejoin="round"><g transform="matrix(1 0 0 .91075 0 7.4683)" stroke-width=".52393"><path d="m57.261 87.823s0.49309-5.056 5.5976-4.0029c2.7176 0.56065 2.453 2.5727 2.9507 3.6233 1.037 2.189 1.9933 4.0097 2.8639 5.2288 6.1282 8.581 3.4933 13.419 2.6861 13.917-0.6105 0.37629-1.8162 0.16888-3.875-0.76003-2.5198-1.137-6.1188-5.1053-5.587-10.182" style="mix-blend-mode:normal"/><path d="m58.484 88.097s-0.63686-0.25423-1.2222-0.27383c-1.3387-0.04484-1.8835 0.11837-2.5927 0.91124-0.30803 0.3444-0.14686 0.52288 0.24243 0.63223 0.98392 0.27639 3.4348 0.11391 3.5218 1.0926 0.01223 0.13747 0.0014 0.2812-0.03455 0.47291-0.37947 2.0261-3.0991 6.9367-0.70312 11.156 2.318 4.0823 6.0576 2.6777 9.7893 3.7408" style="mix-blend-mode:normal"/></g><path d="m54.911 88.859c1.0073 1.0311 1.8309 1.2628 3.4873 1.4258" stroke-width=".5"/><path d="m56.173 84.564c0.46772 0.59635 2.7946 1.6487 4.1744 1.2044" stroke-width=".5"/></g></g></svg>
