<?xml version="1.0" encoding="UTF-8" standalone="no"?>
<!-- Created with Inkscape (http://www.inkscape.org/) -->

<svg
   width="22.809181mm"
   height="22.622097mm"
   viewBox="0 0 22.809181 22.622097"
   version="1.1"
   id="svg5"
   inkscape:version="1.1.2 (b8e25be833, 2022-02-05)"
   sodipodi:docname="rook.svg"
   xmlns:inkscape="http://www.inkscape.org/namespaces/inkscape"
   xmlns:sodipodi="http://sodipodi.sourceforge.net/DTD/sodipodi-0.dtd"
   xmlns:xlink="http://www.w3.org/1999/xlink"
   xmlns="http://www.w3.org/2000/svg"
   xmlns:svg="http://www.w3.org/2000/svg">
  <sodipodi:namedview
     id="namedview7"
     pagecolor="#505050"
     bordercolor="#eeeeee"
     borderopacity="1"
     inkscape:pageshadow="0"
     inkscape:pageopacity="0"
     inkscape:pagecheckerboard="0"
     inkscape:document-units="mm"
     showgrid="false"
     inkscape:snap-grids="false"
     inkscape:snap-others="false"
     inkscape:snap-nodes="true"
     inkscape:snap-smooth-nodes="false"
     inkscape:object-paths="false"
     inkscape:zoom="8"
     inkscape:cx="38.6875"
     inkscape:cy="42.125"
     inkscape:window-width="1920"
     inkscape:window-height="1017"
     inkscape:window-x="-8"
     inkscape:window-y="-8"
     inkscape:window-maximized="1"
     inkscape:current-layer="g39253"
     fit-margin-top="0"
     fit-margin-left="0"
     fit-margin-right="0"
     fit-margin-bottom="0">
    <inkscape:grid
       type="xygrid"
       id="grid2088"
       originx="-50.568525"
       originy="-82.794548" />
  </sodipodi:namedview>
  <defs
     id="defs2">
    <linearGradient
       inkscape:collect="always"
       id="linearGradient48061">
      <stop
         style="stop-color:#11111b;stop-opacity:1"
         offset="0"
         id="stop48057" />
      <stop
         style="stop-color:#211721;stop-opacity:1"
         offset="0.31421965"
         id="stop50887" />
      <stop
         style="stop-color:#272532;stop-opacity:1"
         offset="0.84205908"
         id="stop48833" />
      <stop
         style="stop-color:#1e0f3b;stop-opacity:1"
         offset="0.88581151"
         id="stop53257" />
      <stop
         style="stop-color:#6b5e7a;stop-opacity:1"
         offset="1"
         id="stop48059" />
    </linearGradient>
    <linearGradient
       inkscape:collect="always"
       xlink:href="#linearGradient48061"
       id="linearGradient48063"
       x1="277.09747"
       y1="359.38699"
       x2="204.88419"
       y2="331.36792"
       gradientUnits="userSpaceOnUse" />
  </defs>
  <g
     inkscape:label="fill"
     inkscape:groupmode="layer"
     id="g39253"
     style="display:inline"
     transform="translate(-50.568527,-82.794548)">
    <path
       id="path41414"
       style="display:inline;fill:url(#linearGradient48063);fill-opacity:1;stroke:none;stroke-width:1.00157;stroke-linecap:butt;stroke-linejoin:miter;stroke-miterlimit:4;stroke-dasharray:none;stroke-opacity:1"
       d="m 232.59766,316.25586 c -14.64636,-0.0179 -16.17578,14.27539 -16.17578,14.27539 -5.05967,-0.15436 -7.11857,0.4075 -9.79883,3.13672 -1.16422,1.18548 -0.55531,1.79936 0.91601,2.17578 3.80703,3.89714 6.91935,4.7727 13.17969,5.38867 -1.43436,6.97435 -11.71385,23.87792 -2.6582,38.40235 8.76106,14.05194 22.89582,9.21753 37,12.87695 7.78128,3.19748 12.33907,3.91048 14.64648,2.61523 3.05086,-1.71261 13.00926,-18.36675 -10.15234,-47.90429 -3.2905,-4.1963 -6.90495,-10.4632 -10.82422,-17.99805 -1.88102,-3.61628 -0.88105,-10.5428 -11.15235,-12.47266 -1.80867,-0.33983 -3.46532,-0.49424 -4.98046,-0.49609 z"
       transform="scale(0.26458333)" />
  </g>
  <g
     inkscape:label="outline"
     inkscape:groupmode="layer"
     id="layer1"
     style="display:inline"
     transform="translate(-50.568527,-82.794548)">
    <g
       id="g54974"
       style="display:inline;stroke:#ffffff;stroke-width:0.5;stroke-linecap:round;stroke-linejoin:round;stroke-miterlimit:4;stroke-dasharray:none;stroke-dashoffset:0;stroke-opacity:1">
      <g
         id="g20781"
         transform="matrix(1,0,0,0.91074767,0,7.4682738)"
         style="stroke:#ffffff;stroke-width:0.523927;stroke-linecap:round;stroke-linejoin:round;stroke-miterlimit:4;stroke-dasharray:none;stroke-dashoffset:0;stroke-opacity:1">
        <path
           style="mix-blend-mode:normal;fill:none;fill-opacity:0;stroke:#ffffff;stroke-width:0.523927;stroke-linecap:round;stroke-linejoin:round;stroke-miterlimit:4;stroke-dasharray:none;stroke-dashoffset:0;stroke-opacity:1"
           d="m 57.261487,87.823185 c 0,0 0.493092,-5.055997 5.5976,-4.002932 2.717613,0.560647 2.452985,2.57268 2.950671,3.623252 1.036975,2.188965 1.993278,4.009692 2.863888,5.228768 6.128175,8.581017 3.493323,13.419437 2.686116,13.916967 -0.610503,0.37629 -1.816221,0.16888 -3.875018,-0.76003 m 0,0 c -2.519822,-1.13699 -6.118757,-5.10533 -5.586987,-10.181795"
           id="path2906"
           sodipodi:nodetypes="cssssccc" />
        <path
           style="mix-blend-mode:normal;fill:none;fill-opacity:0;stroke:#ffffff;stroke-width:0.523927;stroke-linecap:round;stroke-linejoin:round;stroke-miterlimit:4;stroke-dasharray:none;stroke-dashoffset:0;stroke-opacity:1"
           d="m 58.483651,88.097018 c 0,0 -0.636857,-0.254228 -1.222164,-0.273833 m 0,0 c -1.338704,-0.04484 -1.883534,0.118366 -2.592687,0.911238 -0.308033,0.344398 -0.146855,0.522879 0.242433,0.632234 m 0,0 c 0.983915,0.276389 3.434772,0.113907 3.521846,1.092608 0.01223,0.137473 0.0014,0.281204 -0.03455,0.472912 m 0,0 c -0.379467,2.026142 -3.09909,6.936683 -0.703116,11.156203 2.318032,4.08226 6.057603,2.67772 9.789337,3.74083"
           id="path6418"
           sodipodi:nodetypes="cccsccsccsc" />
      </g>
      <path
         style="fill:none;stroke:#ffffff;stroke-width:0.5;stroke-linecap:round;stroke-linejoin:round;stroke-miterlimit:4;stroke-dasharray:none;stroke-dashoffset:0;stroke-opacity:1"
         d="m 54.911233,88.858748 c 1.007275,1.031117 1.830912,1.262817 3.487294,1.425794"
         id="path20873"
         sodipodi:nodetypes="cc" />
      <path
         style="display:inline;fill:none;stroke:#ffffff;stroke-width:0.5;stroke-linecap:round;stroke-linejoin:round;stroke-miterlimit:4;stroke-dasharray:none;stroke-dashoffset:0;stroke-opacity:1"
         d="m 56.173372,84.564076 c 0.467722,0.596347 2.794638,1.648719 4.174416,1.204383"
         id="path21535" />
    </g>
  </g>
</svg>
